<?xml version="1.0" standalone="no"?>
<!DOCTYPE svg PUBLIC "-//W3C//DTD SVG 1.1//EN" "http://www.w3.org/Graphics/SVG/1.1/DTD/svg11.dtd">
<svg xmlns="http://www.w3.org/2000/svg" id="Layer_1" data-name="Layer 1" version="1.1" viewBox="0 0 266 98.6" width="266" height="98.5999984741211">
  <defs>
    <style>
      .cls-1 {
        fill: #0a1153;
      }

      .cls-1, .cls-2, .cls-3, .cls-4 {
        stroke-width: 0px;
      }

      .cls-2 {
        fill: #ffa366;
      }

      .cls-3 {
        fill: #f60;
      }

      .cls-4 {
        fill: #ffc299;
      }
    </style>
  </defs>
  <path class="cls-1" d="M219.5,35.5c-8.1-1.8-16.3,3.9-18.1,12.6-1.2,5.8,1,11.3,5.7,14,5,2.8,13.4,2.2,17.4-1.5-.9-1.7-1.8-3.4-2.7-5.1-7.8,2.1-11.3,1.1-11.7-3.3h2.2c4.6,0,9.3,0,13.9,0,.6,0,1.7-.5,1.8-.9,2.1-7.2-1.6-14.2-8.5-15.7ZM211.1,46.8c.4-2.6,2.6-4.6,5-4.5,2.3,0,3.7,1.6,3.8,4.5h-8.8Z"/>
  <path class="cls-1" d="M204.5,35.5c-.4.9-.7,1.5-1,2-4.5,7.9-9,15.8-13.4,23.7-.7,1.3-1.5,1.8-3,1.7-2.3-.1-4.7,0-7.3,0-1.3-9-2.6-18-3.9-26.9-.2,0-.3,0-.5-.1-.4.6-.7,1.2-1.1,1.8-4.8,9-9.6,18-14.5,27-1.2,2.3-2.7,4.5-4.3,6.5-2.9,3.4-8,4.5-12.1,2.6-.5-.2-1.1-1.2-1-1.7.3-2.1.8-4.2,1.3-6.5,2.7,1,4.9,1,6.8-1.2,1-1.2,1.2-2.4,1-3.9-1.4-7.7-2.8-15.5-4.2-23.3,0-.5,0-1-.1-1.7h8.8c.6,5.3,1.3,10.5,1.9,15.7.2,0,.3,0,.5,0,.3-.6.6-1.1.9-1.7,2-4.2,3.9-8.5,5.9-12.7.3-.6,1-1.4,1.6-1.4,6,0,11.9,0,18.2,0,.4,5.4.8,10.6,1.2,15.9.2,0,.3,0,.5.1.3-.5.7-1,.9-1.6,2.1-4.3,4.3-8.6,6.4-12.9.5-1.1,1.2-1.6,2.4-1.5,2.7,0,5.3,0,8.2,0Z"/>
  <path class="cls-3" d="M79.2,47.2c-.9,4.9-2.1,9.7-3,14.5-.2,1.2-.8,1.7-2,1.6-2.3,0-4.7,0-7.4,0,.4-2.1.7-4,1.1-5.8.6-3.1,1.3-6.1,1.9-9.2.5-2.4-.2-3.9-1.9-4.5-1.9-.7-4.1.2-5,2.3-.8,2-1.2,4.2-1.7,6.3-.7,3.1-1.4,6.3-1.9,9.4-.2,1.2-.7,1.6-1.9,1.5-2.4,0-4.8,0-7.5,0,1.6-7.5,3.2-14.8,4.7-22,2.7-1.2,4.9-3,6.4-5.4h3.7c0,.5-.1,1.1-.2,1.6,0,.5,0,1-.2,1.5.6-.6,1.2-1.1,1.7-1.5.4-.3.7-.6,1.1-.9,3.5-2.5,7.9-1.9,10.4.9,1,1.1,1.7,2.5,1.9,4.1.3,1.8.2,3.7-.2,5.5Z"/>
  <path class="cls-1" d="M146,35.6c-.7,3.1-1.3,6.2-2,9.3-.5,0-.8,0-1.1,0-4.3-.7-7,1-8,5.3-.9,3.8-1.7,7.6-2.4,11.4-.3,1.4-.9,2-2.4,1.9-2.3-.1-4.5,0-7.1,0,.7-3.2,1.3-6.2,2-9.2,1.2-5.6,2.4-11.2,3.6-16.8.2-1.2.7-1.5,1.9-1.5,2.4,0,4.8,0,7.4,0-.1,1-.2,1.8-.4,3,2.6-2.1,5-3.8,8.6-3.2Z"/>
  <path class="cls-3" d="M51,42.3c-.2.9-.4,1.8-.6,2.7-1.2,5.5-2.4,11.1-3.5,16.6-.2,1.2-.7,1.7-2,1.6-2.4,0-4.8,0-7.5,0,1.6-7.6,3.2-14.9,4.7-22.3.3.2.7.3,1,.4,1.6.6,3.3,1,5.1,1h.3c.8,0,1.6,0,2.4-.2Z"/>
  <path class="cls-1" d="M54.2,28.1c0,2.2-1.5,4.1-3.5,4.9-.7.3-1.4.4-2.2.4-.7,0-1.3-.1-1.9-.4-.9-.4-1.7-1-2.1-1.8-.3-.6-.5-1.3-.5-2.1,0-.7.2-1.5.5-2.1.6-1.4,1.9-2.4,3.3-2.9.6-.2,1.2-.3,1.9-.3.6,0,1.2.1,1.7.3,1.8.6,2.9,2.1,2.9,4.1Z"/>
  <path class="cls-3" d="M54.2,28.1c0,2.2-1.5,4.1-3.5,4.9-.7.3-1.4.4-2.2.4-.7,0-1.3-.1-1.9-.4-.9-.4-1.7-1-2.1-1.8-.3-.6-.5-1.3-.5-2.1,0-.7.2-1.5.5-2.1.6-1.4,1.9-2.4,3.3-2.9.6-.2,1.2-.3,1.9-.3.6,0,1.2.1,1.7.3,1.8.6,2.9,2.1,2.9,4.1Z"/>
  <path class="cls-2" d="M111.9,62.3c-4.1,1.8-8.1,2.1-10.9,2.2-8.7.3-15.8-.4-15.8-.4l.2-1.1c.2-1,.4-1.9.6-2.9.3-1.5.6-3.1.9-4.6l3.8-17.9h-2.3l-3.7,17.4c-.3,1.4-.6,2.9-.9,4.3,0,0-.5,2.3-.6,3.1l-.7,3.4s13.4.6,18.6-.1,7.5-1.2,10.8-3.5Z"/>
  <path class="cls-4" d="M81.1,66.8l.9-4.6c.2-.8.6-3.1.6-3.1.3-1.5.6-2.9.9-4.3l3.7-17.2h-2.3l-3.6,16.7c-.3,1.4-.6,2.9-.9,4.4,0,0-.5,2.5-.6,3.1l-1.4,6.9s17.9,1.3,25.6-2.3c-12.9,1.4-22.9.4-22.9.4Z"/>
  <path class="cls-3" d="M123.9,44.7c-1.9,10.8-10.1,18.2-21.2,18.6-5,.2-15.5,0-16.1-.2.5-2.5,4.1-19.5,5.4-25.5h10.1c-.9,4.5-1.9,8.9-2.9,13.4-.2,1-.4,2.1-.5,3.1,8.2,1.6,14.4-3,15.2-11.1.2-2.1,0-3.9-.7-5.4-.8-1.7-2.1-2.9-3.8-3.7-1.3-.5-2.8-.8-4.5-.8h-42.3c.5-1.5.9-3.1.9-4.8,0-1.4-.2-2.8-.6-4.1h32.9c.2,0,.6-.1.9,0,3.9.2,7.8,0,11.7.2.3,0,.7,0,1,.1,7.7,1,13.2,6.2,14.6,13.2.5,2.2.5,4.6,0,7.1Z"/>
</svg>